<?xml version="1.0" encoding="iso-8859-1"?>
<!-- Generator: Adobe Illustrator 19.0.0, SVG Export Plug-In . SVG Version: 6.00 Build 0)  -->
<svg version="1.1" id="Capa_1" xmlns="http://www.w3.org/2000/svg" xmlns:xlink="http://www.w3.org/1999/xlink" x="0px" y="0px"
	 viewBox="0 0 480 480" style="enable-background:new 0 0 480 480;" xml:space="preserve">
<g>
	<polygon style="fill:#BF515A;" points="283.509,33.684 300.351,2.807 238.596,2.807 261.053,14.035 261.053,64.562 300.351,64.562 
			"/>
	<rect x="188.07" y="67.368" style="fill:#A08A8A;" width="5.614" height="328.421"/>
	<path style="fill:#A08A8A;" d="M193.684,10.471c-0.826,0.479-1.783,0.757-2.807,0.757s-1.981-0.279-2.807-0.757v10.582h5.614
		V10.471z"/>
	<rect x="188.07" y="26.667" style="fill:#A08A8A;" width="5.614" height="35.088"/>
	<path style="fill:#826E77;" d="M187.263,395.79c-1.105,0-2,0.895-2,2v70.982h11.228V397.79c0-1.105-0.895-2-2-2h-0.807h-5.614
		H187.263z"/>
	<polygon style="fill:#695A69;" points="185.263,468.772 179.649,468.772 179.649,480 185.263,480 188.07,480 193.684,480 
		196.491,480 202.105,480 202.105,468.772 196.491,468.772 	"/>
	<path style="fill:#E17277;" d="M193.684,10.471c1.676-0.971,2.807-2.78,2.807-4.857c0-3.101-2.513-5.614-5.614-5.614
		c-3.101,0-5.614,2.513-5.614,5.614c0,2.077,1.131,3.886,2.807,4.857c0.826,0.479,1.783,0.757,2.807,0.757
		S192.858,10.949,193.684,10.471z"/>
	<polygon style="fill:#E17277;" points="238.596,14.035 199.298,14.035 199.298,21.053 199.298,26.667 199.298,61.754 
		199.298,67.368 199.298,75.79 261.053,75.79 261.053,64.562 261.053,14.035 	"/>
	<polygon style="fill:#944851;" points="238.596,2.807 238.596,14.035 261.053,14.035 	"/>
	<path style="fill:#695A69;" d="M193.684,61.754h-5.614h-0.807c-1.105,0-2,0.896-2,2v1.614c0,1.104,0.895,2,2,2h0.807h5.614h5.614
		v-5.614H193.684z"/>
	<path style="fill:#695A69;" d="M199.298,26.667v-5.614h-5.614h-5.614h-0.807c-1.105,0-2,0.895-2,2v1.614c0,1.105,0.895,2,2,2h0.807
		h5.614H199.298z"/>
</g>
<g>
</g>
<g>
</g>
<g>
</g>
<g>
</g>
<g>
</g>
<g>
</g>
<g>
</g>
<g>
</g>
<g>
</g>
<g>
</g>
<g>
</g>
<g>
</g>
<g>
</g>
<g>
</g>
<g>
</g>
</svg>
